<svg width="37" height="39" viewBox="0 0 37 39" fill="none" xmlns="http://www.w3.org/2000/svg">
<path fill-rule="evenodd" clip-rule="evenodd" d="M18.4497 0.161608C17.9498 0.161608 17.5449 0.593431 17.5449 1.12674L17.5447 18.1802L1.55714 18.1804C1.05716 18.1804 0.652328 18.6122 0.652328 19.1455C0.652328 19.6788 1.05716 20.1106 1.55714 20.1106L17.5447 20.1104L17.5447 37.1641C17.5445 37.6972 17.9496 38.1292 18.4495 38.1292C18.6995 38.1292 18.9256 38.021 19.0893 37.8464C19.2531 37.6717 19.3544 37.4307 19.3544 37.1641L19.3544 20.1104L35.3421 20.1104C35.5921 20.1104 35.8181 20.0024 35.9819 19.8277C36.1457 19.6529 36.247 19.412 36.247 19.1453C36.247 18.612 35.8419 18.18 35.3421 18.1802L19.3544 18.1802L19.3545 1.12674C19.3545 0.593431 18.9497 0.161608 18.4497 0.161608" fill="#737373"/>
</svg>
