<svg width="20" height="20" viewBox="0 0 20 20" fill="none" xmlns="http://www.w3.org/2000/svg">
<rect width="20" height="20" fill="#0DB46F" fill-opacity="0.01"/>
<path fill-rule="evenodd" clip-rule="evenodd" d="M2.12397 7.81918H7.81912V2.12421H2.12397V7.81918ZM8.4647 0.833252H1.47858C1.12192 0.833252 0.833008 1.12216 0.833008 1.47864V8.46475C0.833008 8.82142 1.12192 9.11033 1.47858 9.11033H8.4647C8.82136 9.11033 9.11027 8.82142 9.11027 8.46475V1.47864C9.11027 1.12216 8.82136 0.833252 8.4647 0.833252V0.833252Z" fill="#0DB46F"/>
<path fill-rule="evenodd" clip-rule="evenodd" d="M12.1808 7.81918H17.876V2.12421H12.1808V7.81918ZM18.5215 0.833252H11.5352C11.1786 0.833252 10.8896 1.12216 10.8896 1.47864V8.46475C10.8896 8.82142 11.1786 9.11033 11.5352 9.11033H18.5215C18.878 9.11033 19.1669 8.82142 19.1669 8.46475V1.47864C19.1669 1.12216 18.878 0.833252 18.5215 0.833252V0.833252Z" fill="#0DB46F"/>
<path fill-rule="evenodd" clip-rule="evenodd" d="M2.12397 17.8753H7.81912V12.1804H2.12397V17.8753ZM8.4647 10.8894H1.47858C1.12192 10.8894 0.833008 11.1783 0.833008 11.535V18.5209C0.833008 18.8776 1.12192 19.1665 1.47858 19.1665H8.4647C8.82136 19.1665 9.11027 18.8776 9.11027 18.5209V11.535C9.11027 11.1783 8.82136 10.8894 8.4647 10.8894V10.8894Z" fill="#0DB46F"/>
<path fill-rule="evenodd" clip-rule="evenodd" d="M12.1808 17.8753H17.876V12.1804H12.1808V17.8753ZM18.5215 10.8894H11.5352C11.1786 10.8894 10.8896 11.1783 10.8896 11.535V18.5209C10.8896 18.8776 11.1786 19.1665 11.5352 19.1665H18.5215C18.878 19.1665 19.1669 18.8776 19.1669 18.5209V11.535C19.1669 11.1783 18.878 10.8894 18.5215 10.8894V10.8894Z" fill="#0DB46F"/>
</svg>
