<svg width="52" height="39" viewBox="0 0 52 39" fill="none" xmlns="http://www.w3.org/2000/svg">
<path d="M37.1794 9.05765C40.4611 9.05765 43.4284 10.3054 45.5791 12.3226C47.7298 14.3398 49.0601 17.1265 49.0601 20.2008C49.0601 23.2752 47.7298 26.0619 45.5791 28.0791C43.4284 30.0963 40.4573 31.344 37.1794 31.344H10.1977C7.38375 31.344 4.83432 30.2725 2.98647 28.5429C1.14245 26.8134 0 24.4222 0 21.7793C0 19.1365 1.14245 16.7453 2.98647 15.0158C4.53913 13.5595 6.594 12.5707 8.88274 12.2938C8.8674 12.0565 8.85973 11.8335 8.85973 11.6214C8.85973 8.41401 10.2475 5.50866 12.4864 3.40516C14.7292 1.30165 17.8268 0 21.2465 0C24.6662 0 27.7485 1.29806 29.9912 3.39437C31.7624 5.052 33.0007 7.20944 33.4454 9.62218C33.7099 9.53947 33.9821 9.46396 34.2543 9.39924C35.1936 9.1763 36.175 9.05765 37.1794 9.05765Z" fill="#DBF1FC"/>
<path fill-rule="evenodd" clip-rule="evenodd" d="M50.5123 26.7795C51.3163 27.9547 51.7857 29.3879 51.7857 30.9363C51.7857 34.9263 48.6541 38.158 44.7876 38.158C40.9212 38.158 37.7896 34.9223 37.7896 30.9363C37.7896 29.3879 38.2628 27.9547 39.063 26.7795L44.7876 17.1638L50.5123 26.7795Z" fill="#68AFF0"/>
</svg>
