<svg width="36" height="30" viewBox="0 0 36 30" fill="none" xmlns="http://www.w3.org/2000/svg">
<path d="M18.9424 1.65813C18.9424 1.65813 18.9424 5.72205e-06 20.5754 5.72205e-06C22.2084 5.72205e-06 22.2084 1.65813 22.2084 1.65813V3.31625C22.2084 3.31625 22.2084 4.97437 20.5754 4.97437C18.9424 4.97437 18.9424 3.31625 18.9424 3.31625V1.65813Z" fill="#FFAC33"/>
<path d="M33.64 13.2651C33.64 13.2651 35.273 13.2651 35.273 14.9232C35.273 16.5813 33.64 16.5813 33.64 16.5813H32.007C32.007 16.5813 30.374 16.5813 30.374 14.9232C30.374 13.2651 32.007 13.2651 32.007 13.2651H33.64Z" fill="#FFAC33"/>
<path d="M9.1449 13.2651C9.1449 13.2651 10.7779 13.2651 10.7779 14.9232C10.7779 16.5813 9.1449 16.5813 9.1449 16.5813H7.5119C7.5119 16.5813 5.87891 16.5813 5.87891 14.9232C5.87891 13.2651 7.5119 13.2651 7.5119 13.2651H9.1449Z" fill="#FFAC33"/>
<path d="M13.3271 6.047C13.3271 6.047 14.4817 7.21929 13.3271 8.39158C12.1726 9.56387 11.0181 8.39158 11.0181 8.39158L9.86273 7.21929C9.86273 7.21929 8.7082 6.047 9.86273 4.87388C11.0181 3.70159 12.1726 4.87388 12.1726 4.87388L13.3271 6.047Z" fill="#FFAC33"/>
<path d="M30.4728 23.4567C30.4728 23.4567 31.6273 24.629 30.4728 25.8012C29.3183 26.9735 28.1637 25.8012 28.1637 25.8012L27.0092 24.629C27.0092 24.629 25.8547 23.4567 27.0092 22.2844C28.1637 21.1121 29.3183 22.2844 29.3183 22.2844L30.4728 23.4567Z" fill="#FFAC33"/>
<path d="M30.1347 8.39085C30.1347 8.39085 28.9802 9.56314 27.8256 8.39085C26.6711 7.21856 27.8256 6.04627 27.8256 6.04627L28.9802 4.87398C28.9802 4.87398 30.1347 3.70168 31.2892 4.87398C32.4437 6.04627 31.2892 7.21856 31.2892 7.21856L30.1347 8.39085Z" fill="#FFAC33"/>
<path d="M12.9892 25.8012C12.9892 25.8012 11.8346 26.9735 10.6801 25.8012C9.52559 24.629 10.6801 23.4567 10.6801 23.4567L11.8346 22.2844C11.8346 22.2844 12.9892 21.1121 14.1437 22.2844C15.2982 23.4567 14.1437 24.629 14.1437 24.629L12.9892 25.8012Z" fill="#FFAC33"/>
<path d="M18.9424 26.53C18.9424 26.53 18.9424 24.8718 20.5754 24.8718C22.2084 24.8718 22.2084 26.53 22.2084 26.53V28.1881C22.2084 28.1881 22.2084 29.8462 20.5754 29.8462C18.9424 29.8462 18.9424 28.1881 18.9424 28.1881V26.53Z" fill="#FFAC33"/>
<path d="M28.7411 14.923C28.7411 10.3441 25.0848 6.63243 20.5761 6.63243C16.0666 6.63243 12.4111 10.3441 12.4111 14.923C12.4111 19.5011 16.0666 23.2136 20.5761 23.2136C25.0848 23.2136 28.7411 19.5011 28.7411 14.923Z" fill="#FFAC33"/>
<path d="M19.3897 23.1838C19.3751 22.9105 19.3466 22.6381 19.3043 22.3677C19.0198 20.5695 18.1033 18.9319 16.7197 17.7496C15.3361 16.5672 13.5761 15.9177 11.7565 15.918C9.93696 15.9182 8.17718 16.5682 6.79385 17.7509C5.41052 18.9336 4.49445 20.5714 4.21047 22.3697C4.16848 22.6395 4.14012 22.9112 4.1255 23.1838C2.91734 23.6205 1.87304 24.4191 1.13482 25.4709C0.396602 26.5227 0.000341194 27.7766 0 29.0619C0 29.2699 0.0825829 29.4694 0.229581 29.6165C0.376579 29.7635 0.575952 29.8462 0.783838 29.8462H22.7313C22.9392 29.8462 23.1386 29.7635 23.2856 29.6165C23.4326 29.4694 23.5152 29.2699 23.5152 29.0619C23.5148 27.7766 23.1186 26.5227 22.3803 25.4709C21.6421 24.4191 20.5978 23.6205 19.3897 23.1838Z" fill="#7CC9F2"/>
</svg>
