<svg width="31" height="53" viewBox="0 0 31 53" fill="none" xmlns="http://www.w3.org/2000/svg">
<path d="M20.4084 39.8191V11.2667C20.4084 10.8688 20.0784 10.5457 19.672 10.5457H19.6578C19.2514 10.5457 18.9213 10.8688 18.9213 11.2667V39.8486C16.7244 40.2344 15.0581 42.1143 15.0581 44.3766C15.0581 46.9185 17.1627 48.9792 19.7589 48.9792C22.3551 48.9792 24.4598 46.9185 24.4598 44.3766C24.4598 42.0518 22.6976 40.1301 20.4102 39.8191H20.4084Z" fill="#E4C471"/>
<path d="M15.2583 17.4527V37.368C12.2469 39.3435 10.8379 42.9367 11.805 46.3978C12.7633 49.8241 16.0835 52.1541 19.6433 52.2618C23.2652 52.3713 26.4665 49.9475 27.6271 46.6653C28.8551 43.1938 27.2846 39.3644 24.2554 37.368V11.8579C24.2554 10.7181 24.3672 9.50363 24.1543 8.37599C23.5048 4.94442 18.2716 4.47877 16.1971 6.79834C15.1111 8.01285 15.2566 9.55749 15.2566 11.0431V17.451L15.2583 17.4527ZM16.5236 37.6929V11.6095C16.5236 10.3324 16.3036 8.83469 17.056 7.72443C17.9149 6.45779 20.3212 6.32574 21.6149 6.97035C22.6086 7.46554 22.9919 8.48546 22.9919 9.51058V37.705C22.9919 37.9049 23.0718 38.0543 23.1907 38.1551C23.2244 38.1863 23.2617 38.2141 23.306 38.2402C27.2651 40.6067 27.8897 45.946 24.5944 49.1274C21.4463 52.168 16.1864 51.3392 13.8369 47.8173C12.632 46.012 12.4776 43.7602 13.191 41.7499C13.5406 40.7648 14.1901 39.8978 14.9442 39.1732C15.3595 38.7736 16.5254 38.3358 16.5254 37.6929H16.5236Z" fill="white"/>
<path d="M8.06738 15.3984C8.06738 18.995 11.0451 21.9106 14.7185 21.9106V8.88623C11.0451 8.88623 8.06738 11.8018 8.06738 15.3984Z" fill="white"/>
<path d="M3.29185 5.58891C4.69908 6.6957 6.10809 7.80249 7.51532 8.90928C8.10803 9.37666 8.95805 8.55483 8.35824 8.08396C6.95101 6.97717 5.542 5.87038 4.13477 4.76359C3.54206 4.29621 2.69204 5.11804 3.29185 5.58891Z" fill="white"/>
<path d="M11.2599 5.75918C11.6077 6.42985 12.6369 5.8391 12.2891 5.17016C11.4781 3.60641 10.6672 2.04266 9.85441 0.478907C9.50659 -0.191769 8.47734 0.398982 8.82516 1.06792C9.63614 2.63167 10.4471 4.19543 11.2599 5.75918Z" fill="white"/>
<path d="M0.745028 19.1426C2.52847 18.7447 4.31369 18.345 6.09713 17.9471C6.846 17.7803 6.52835 16.6544 5.77948 16.8212C3.99604 17.2191 2.21082 17.6188 0.42738 18.0166C-0.321488 18.1834 -0.00384056 19.3094 0.745028 19.1426Z" fill="white"/>
<path d="M0.42738 11.4794C2.20372 11.8773 3.98184 12.2734 5.75818 12.6713C6.50705 12.8381 6.8247 11.7122 6.07583 11.5454C4.29949 11.1475 2.52137 10.7514 0.745027 10.3535C-0.00384056 10.1867 -0.321488 11.3126 0.42738 11.4794Z" fill="white"/>
<path d="M7.5163 21.2193C6.10906 22.3191 4.70005 23.419 3.29282 24.5171C2.69124 24.9862 3.54126 25.808 4.13574 25.3424C5.54297 24.2425 6.95198 23.1427 8.35922 22.0446C8.96079 21.5755 8.11078 20.7536 7.5163 21.2193Z" fill="white"/>
<path d="M9.85474 29.6272C10.6657 28.0547 11.4767 26.4823 12.2894 24.9099C12.6355 24.2392 11.6062 23.6484 11.2602 24.3208C10.4492 25.8933 9.63824 27.4657 8.82549 29.0382C8.47945 29.7088 9.5087 30.2996 9.85474 29.6272Z" fill="white"/>
<path d="M27.4133 14.292H30.3041C30.9997 14.292 30.9997 13.2373 30.3041 13.2373H27.4133C26.7177 13.2373 26.7177 14.292 27.4133 14.292Z" fill="white"/>
<path d="M27.4133 20.5781H30.3041C30.9997 20.5781 30.9997 19.5234 30.3041 19.5234H27.4133C26.7177 19.5234 26.7177 20.5781 27.4133 20.5781Z" fill="white"/>
<path d="M27.4133 27.4272H30.3041C30.9997 27.4272 30.9997 26.3726 30.3041 26.3726H27.4133C26.7177 26.3726 26.7177 27.4272 27.4133 27.4272Z" fill="white"/>
</svg>
