<svg width="20" height="20" viewBox="0 0 20 20" fill="none" xmlns="http://www.w3.org/2000/svg">
<rect width="20" height="20" fill="#DADADA" fill-opacity="0.01"/>
<path fill-rule="evenodd" clip-rule="evenodd" d="M17.8751 17.6509L13.4857 16.3208V2.3492L17.8751 3.67929V17.6509ZM12.1945 16.3208L7.8049 17.6509V3.67929L12.1945 2.3492V16.3208ZM6.51377 17.6509L2.12413 16.3208V2.3492L6.51377 3.67929V17.6509ZM18.7079 2.58258L13.0274 0.861207C13.0151 0.857443 13.0025 0.857443 12.9901 0.854619C12.9647 0.848409 12.9395 0.843703 12.9135 0.840692C12.889 0.837869 12.8648 0.836551 12.8401 0.836551C12.8154 0.836551 12.7914 0.837869 12.7667 0.840692C12.7407 0.843703 12.7155 0.848409 12.6901 0.854619C12.6779 0.857443 12.6651 0.857443 12.6528 0.861207L7.15934 2.52593L1.66584 0.861207C1.47085 0.801544 1.25836 0.838622 1.09406 0.960582C0.929936 1.08235 0.833008 1.27452 0.833008 1.4791V16.7996C0.833008 17.084 1.01915 17.3349 1.2913 17.4175L6.97207 19.1389C7.03342 19.1576 7.09647 19.1666 7.15934 19.1666C7.22201 19.1666 7.28525 19.1576 7.34661 19.1389L12.8401 17.4742L18.3334 19.1389C18.3948 19.1576 18.4578 19.1666 18.5207 19.1666C18.6573 19.1666 18.7928 19.1231 18.9052 19.0395C19.0693 18.9178 19.1662 18.7256 19.1662 18.5212V3.20048C19.1662 2.91609 18.9799 2.66521 18.7079 2.58258V2.58258Z" fill="#DADADA"/>
</svg>
