<svg width="26" height="27" viewBox="0 0 26 27" fill="none" xmlns="http://www.w3.org/2000/svg">
<rect width="26" height="26.0325" fill="#DADADA" fill-opacity="0.01"/>
<path fill-rule="evenodd" clip-rule="evenodd" d="M21.0116 14.5108C20.8021 15.6438 20.3688 16.6959 19.7234 17.6371C19.4949 17.9712 19.5365 18.4214 19.8226 18.7076L20.807 19.6935L19.6683 20.8336L18.6859 19.85C18.3988 19.563 17.9486 19.5216 17.6145 19.7526C16.6723 20.4037 15.621 20.8417 14.4899 21.0536C14.0928 21.1282 13.8045 21.4759 13.8045 21.8806V23.2655H12.1943V21.8872C12.1943 21.4808 11.9046 21.1326 11.5053 21.0598C10.3649 20.8511 9.30774 20.417 8.36425 19.769C8.03064 19.5395 7.58094 19.5812 7.2951 19.8681L6.33078 20.8336L5.19207 19.6935L6.15296 18.7312C6.44002 18.4437 6.48068 17.9925 6.24971 17.658C5.5945 16.7094 5.15582 15.6504 4.94542 14.5108C4.87194 14.112 4.52486 13.8224 4.11949 13.8224H2.76303V12.2102H4.11827C4.52364 12.2102 4.87096 11.9205 4.94468 11.5213C5.15484 10.3802 5.59303 9.31998 6.24701 8.37039C6.47725 8.03637 6.43635 7.58513 6.14977 7.29819L5.19207 6.33929L6.33078 5.19916L7.29118 6.16076C7.57726 6.4472 8.02672 6.48938 8.36033 6.25983C9.30652 5.6097 10.3649 5.17439 11.5053 4.96642C11.9046 4.89359 12.1943 4.54534 12.1943 4.13897V2.76708H13.8045V4.14535C13.8045 4.55025 14.0928 4.898 14.4904 4.97231C15.622 5.1842 16.6745 5.62294 17.6184 6.27627C17.9508 6.50581 18.4027 6.46584 18.6898 6.17866L19.6683 5.19916L20.807 6.33929L19.8253 7.32223C19.5392 7.60867 19.4976 8.0582 19.7264 8.39222C20.371 9.33469 20.8036 10.3873 21.012 11.5213C21.086 11.9205 21.4333 12.2102 21.8385 12.2102H23.2358V13.8224H21.8375C21.4321 13.8224 21.0848 14.1115 21.0116 14.5108V14.5108ZM24.076 15.5048C24.5399 15.5048 24.9161 15.1281 24.9161 14.6636V11.369C24.9161 10.9047 24.5399 10.528 24.076 10.528H22.5128C22.2869 9.64909 21.944 8.81502 21.4885 8.03564L22.589 6.93401C22.9172 6.60538 22.9172 6.0732 22.589 5.74458L20.2623 3.41502C19.9341 3.08639 19.4026 3.08639 19.0744 3.41502L17.9792 4.51125C17.1989 4.0497 16.3636 3.70195 15.4848 3.47191V1.9259C15.4848 1.46166 15.1086 1.08472 14.6447 1.08472H11.3544C10.8905 1.08472 10.5143 1.46166 10.5143 1.9259V3.46259C9.62812 3.6892 8.78823 4.03474 8.0037 4.49482L6.92475 3.41502C6.59654 3.08639 6.06502 3.08639 5.73681 3.41502L3.41015 5.74458C3.08194 6.0732 3.08194 6.60538 3.41015 6.93401L4.48494 8.00989C4.02103 8.79687 3.67273 9.63977 3.44395 10.528H1.9229C1.45923 10.528 1.08301 10.9047 1.08301 11.369V14.6636C1.08301 15.1281 1.45923 15.5048 1.9229 15.5048H3.44567C3.67493 16.3913 4.02323 17.2335 4.48763 18.02L3.41015 19.0988C3.08194 19.4274 3.08194 19.9596 3.41015 20.2882L5.73681 22.6178C6.06502 22.9464 6.59654 22.9464 6.92475 22.6178L8.00762 21.5336C8.79019 21.9924 9.62934 22.3367 10.5143 22.5636V24.1067C10.5143 24.5711 10.8905 24.9478 11.3544 24.9478H14.6447C15.1086 24.9478 15.4848 24.5711 15.4848 24.1067V22.5538C16.3627 22.3242 17.1962 21.9775 17.9751 21.5171L19.0744 22.6178C19.4026 22.9464 19.9341 22.9464 20.2623 22.6178L22.589 20.2882C22.9172 19.9596 22.9172 19.4274 22.589 19.0988L21.4862 17.9947C21.9413 17.2161 22.2847 16.3825 22.5113 15.5048H24.076Z" fill="#DADADA"/>
<path fill-rule="evenodd" clip-rule="evenodd" d="M12.979 17.2385C10.7246 17.2385 8.88998 15.4018 8.88998 13.1444C8.88998 10.8872 10.7246 9.05102 12.979 9.05102C15.2334 9.05102 17.0672 10.8872 17.0672 13.1444C17.0672 15.4018 15.2334 17.2385 12.979 17.2385M12.979 7.36865C9.79796 7.36865 7.20996 9.9594 7.20996 13.1444C7.20996 16.3293 9.79796 18.9208 12.979 18.9208C16.16 18.9208 18.7475 16.3293 18.7475 13.1444C18.7475 9.9594 16.16 7.36865 12.979 7.36865" fill="#DADADA"/>
</svg>
