<svg width="46" height="46" viewBox="0 0 46 46" fill="none" xmlns="http://www.w3.org/2000/svg">
<circle cx="23" cy="23" r="23" fill="#4F74F9" fill-opacity="0.3"/>
<rect x="10" y="10" width="26" height="26" fill="white" fill-opacity="0.01"/>
<path fill-rule="evenodd" clip-rule="evenodd" d="M24.6439 11.9919C24.5411 12.4435 24.8247 12.8933 25.2766 12.996C29.9641 14.0599 33.2386 18.1655 33.2386 22.9805C33.2386 28.6261 28.6458 33.2187 23.0004 33.2187C17.355 33.2187 12.7617 28.6261 12.7617 22.9805C12.7617 18.1863 16.0191 14.0843 20.6828 13.0053C21.1345 12.9008 21.4159 12.4502 21.3112 11.999C21.2067 11.5475 20.7565 11.2662 20.3048 11.3706C14.875 12.6261 11.0835 17.4007 11.0835 22.9805C11.0835 29.5515 16.4294 34.8972 23.0004 34.8972C29.5714 34.8972 34.9168 29.5515 34.9168 22.9805C34.9168 17.3767 31.1055 12.5977 25.648 11.3591C25.1917 11.2549 24.7467 11.54 24.6439 11.9919Z" fill="#A1B4F5"/>
<mask id="mask0_630_4811" style="mask-type:luminance" maskUnits="userSpaceOnUse" x="22" y="11" width="2" height="13">
<path fill-rule="evenodd" clip-rule="evenodd" d="M22.1611 11.0833H23.8396V23.8198H22.1611V11.0833Z" fill="white"/>
</mask>
<g mask="url(#mask0_630_4811)">
<path fill-rule="evenodd" clip-rule="evenodd" d="M23.0004 23.8198C23.4638 23.8198 23.8396 23.444 23.8396 22.9806V11.9225C23.8396 11.4591 23.4638 11.0833 23.0004 11.0833C22.537 11.0833 22.1611 11.4591 22.1611 11.9225V22.9806C22.1611 23.444 22.537 23.8198 23.0004 23.8198" fill="#A1B4F5"/>
</g>
</svg>
