<svg width="37" height="38" viewBox="0 0 37 38" fill="none" xmlns="http://www.w3.org/2000/svg">
<path d="M30.634 24.8859C30.0586 23.1325 29.7573 21.297 29.7573 19.434V14.8588C29.7847 11.9548 28.771 9.133 26.8533 6.96869C24.9355 4.77699 22.3055 3.37977 19.4289 3.02362C17.8399 2.85924 16.2235 3.02362 14.6893 3.54415C13.1551 4.03729 11.7579 4.85918 10.5799 5.95503C9.40183 7.02348 8.44296 8.33851 7.81284 9.79051C7.18273 11.2425 6.82658 12.8041 6.82658 14.4205V19.4614C6.82658 21.297 6.52522 23.1325 5.94989 24.8859L4.58008 28.9405L5.67593 30.4473H13.703C13.703 31.6528 14.1962 32.8308 15.0455 33.6801C15.8948 34.5294 17.0728 35.0225 18.2782 35.0225C19.4837 35.0225 20.6617 34.5294 21.511 33.6801C22.3603 32.8308 22.8534 31.6528 22.8534 30.4473H30.8805L31.9764 28.9405L30.634 24.8859ZM19.8946 32.0911C19.4563 32.5295 18.881 32.776 18.2782 32.776C17.6755 32.776 17.1002 32.5295 16.6619 32.0911C16.2235 31.6528 15.9769 31.0774 15.9769 30.4747H20.5521C20.5795 31.0774 20.333 31.6528 19.8946 32.0911ZM7.26492 28.1734L8.1142 25.6256C8.77171 23.6257 9.12787 21.5435 9.12787 19.4614V14.4205C9.12787 13.1329 9.40183 11.8726 9.92236 10.722C10.4429 9.54394 11.1826 8.50289 12.1415 7.6536C13.1003 6.77692 14.2236 6.11941 15.429 5.73586C16.6619 5.32491 17.9495 5.18793 19.2097 5.32491C21.511 5.62627 23.6479 6.77692 25.1547 8.53028C26.6889 10.2836 27.4834 12.5575 27.456 14.8862V19.4888C27.456 21.5709 27.7848 23.653 28.4697 25.653L29.3189 28.2008H7.26492V28.1734Z" fill="#DBDBDB"/>
<circle cx="28.7017" cy="7.38972" r="6.71736" fill="#F33636"/>
</svg>
