<svg width="14" height="14" viewBox="0 0 14 14" fill="none" xmlns="http://www.w3.org/2000/svg">
<rect width="14" height="14" fill="white" fill-opacity="0.01"/>
<path fill-rule="evenodd" clip-rule="evenodd" d="M5.5743 9.66093C3.32073 9.66093 1.4873 7.8275 1.4873 5.57393C1.4873 3.32035 3.32073 1.48692 5.5743 1.48692C7.82775 1.48692 9.66131 3.32035 9.66131 5.57393C9.66131 7.8275 7.82775 9.66093 5.5743 9.66093M13.2844 12.6452L9.40598 8.76661C10.1286 7.90062 10.565 6.7876 10.565 5.57393C10.565 2.82194 8.32616 0.583252 5.5743 0.583252C2.82232 0.583252 0.583496 2.82194 0.583496 5.57393C0.583496 8.32591 2.82232 10.5647 5.5743 10.5647C6.78785 10.5647 7.90087 10.1284 8.76686 9.4056L12.6456 13.2842C12.7338 13.3724 12.8494 13.4166 12.9651 13.4166C13.0806 13.4166 13.1963 13.3724 13.2844 13.2842C13.461 13.1078 13.461 12.8216 13.2844 12.6452" fill="#121212"/>
</svg>
