<svg width="24" height="24" viewBox="0 0 24 24" fill="none" xmlns="http://www.w3.org/2000/svg">
<path d="M4.7998 7.82104C4.7998 6.86365 4.7998 6.38495 4.96037 6.00902C5.16154 5.53801 5.53584 5.16273 6.00561 4.96103C6.38056 4.80005 6.858 4.80005 7.81288 4.80005C8.76777 4.80005 9.24521 4.80005 9.62015 4.96103C10.0899 5.16273 10.4642 5.53801 10.6654 6.00902C10.826 6.38495 10.826 6.86365 10.826 7.82104C10.826 8.77843 10.826 9.25712 10.6654 9.63305C10.4642 10.1041 10.0899 10.4793 9.62015 10.681C9.24521 10.842 8.76777 10.842 7.81288 10.842C6.858 10.842 6.38056 10.842 6.00561 10.681C5.53584 10.4793 5.16154 10.1041 4.96037 9.63305C4.7998 9.25712 4.7998 8.77843 4.7998 7.82104Z" stroke="#EBEBEB"/>
<path d="M13.1736 7.82104C13.1736 6.86365 13.1736 6.38495 13.3342 6.00902C13.5354 5.53801 13.9097 5.16273 14.3795 4.96103C14.7544 4.80005 15.2318 4.80005 16.1867 4.80005C17.1416 4.80005 17.6191 4.80005 17.994 4.96103C18.4638 5.16273 18.8381 5.53801 19.0392 6.00902C19.1998 6.38495 19.1998 6.86365 19.1998 7.82104C19.1998 8.77843 19.1998 9.25712 19.0392 9.63305C18.8381 10.1041 18.4638 10.4793 17.994 10.681C17.6191 10.842 17.1416 10.842 16.1867 10.842C15.2318 10.842 14.7544 10.842 14.3795 10.681C13.9097 10.4793 13.5354 10.1041 13.3342 9.63305C13.1736 9.25712 13.1736 8.77843 13.1736 7.82104Z" stroke="#EBEBEB"/>
<path d="M13.1736 16.1791C13.1736 15.2217 13.1736 14.743 13.3342 14.367C13.5354 13.896 13.9097 13.5208 14.3795 13.3191C14.7544 13.1581 15.2318 13.1581 16.1867 13.1581C17.1416 13.1581 17.6191 13.1581 17.994 13.3191C18.4638 13.5208 18.8381 13.896 19.0392 14.367C19.1998 14.743 19.1998 15.2217 19.1998 16.1791C19.1998 17.1364 19.1998 17.6151 19.0392 17.9911C18.8381 18.4621 18.4638 18.8374 17.994 19.0391C17.6191 19.2 17.1416 19.2 16.1867 19.2C15.2318 19.2 14.7544 19.2 14.3795 19.0391C13.9097 18.8374 13.5354 18.4621 13.3342 17.9911C13.1736 17.6151 13.1736 17.1364 13.1736 16.1791Z" stroke="#EBEBEB"/>
<path d="M4.7998 16.1791C4.7998 15.2217 4.7998 14.743 4.96037 14.367C5.16154 13.896 5.53584 13.5208 6.00561 13.3191C6.38056 13.1581 6.858 13.1581 7.81288 13.1581C8.76777 13.1581 9.24521 13.1581 9.62015 13.3191C10.0899 13.5208 10.4642 13.896 10.6654 14.367C10.826 14.743 10.826 15.2217 10.826 16.1791C10.826 17.1364 10.826 17.6151 10.6654 17.9911C10.4642 18.4621 10.0899 18.8374 9.62015 19.0391C9.24521 19.2 8.76777 19.2 7.81288 19.2C6.858 19.2 6.38056 19.2 6.00561 19.0391C5.53584 18.8374 5.16154 18.4621 4.96037 17.9911C4.7998 17.6151 4.7998 17.1364 4.7998 16.1791Z" stroke="#EBEBEB"/>
</svg>
