<svg width="26" height="28" viewBox="0 0 26 28" fill="none" xmlns="http://www.w3.org/2000/svg">
<rect width="26" height="28" fill="#DADADA" fill-opacity="0.01"/>
<path fill-rule="evenodd" clip-rule="evenodd" d="M24.7745 14.5026C24.7814 14.4916 24.7858 14.4792 24.7921 14.4679C24.8142 14.4289 24.8355 14.3899 24.8518 14.3474C24.8582 14.3308 24.8611 14.3127 24.8668 14.2958C24.879 14.2573 24.8922 14.2194 24.8998 14.1788C24.9106 14.1203 24.9164 14.0605 24.9164 14.0002C24.9164 13.9398 24.9106 13.88 24.8998 13.8218C24.8922 13.7809 24.879 13.7427 24.8665 13.7042C24.8611 13.6874 24.8582 13.6695 24.8518 13.6531C24.8352 13.6102 24.8137 13.5701 24.7912 13.5309C24.785 13.5201 24.7811 13.5085 24.7745 13.4979C24.7439 13.4487 24.709 13.4025 24.6701 13.3606L19.1318 7.39641C18.8042 7.04332 18.273 7.04332 17.9452 7.39641C17.6175 7.74923 17.6175 8.32128 17.9452 8.67436L22.0513 13.0964H7.46131C6.99765 13.0964 6.62207 13.5014 6.62207 14.0002C6.62207 14.4992 6.99765 14.9039 7.46131 14.9039H22.0513L17.9452 19.3257C17.6175 19.6788 17.6175 20.2506 17.9452 20.6036C18.1091 20.7802 18.3239 20.8685 18.5385 20.8685C18.7533 20.8685 18.9679 20.7802 19.1318 20.6036L24.6701 14.6397C24.709 14.598 24.7439 14.5519 24.7745 14.5026" fill="#DADADA"/>
<path fill-rule="evenodd" clip-rule="evenodd" d="M12.9994 16.1091C12.5358 16.1091 12.1602 16.5138 12.1602 17.0129V25.0261H2.76148V2.97407H12.1602V10.9878C12.1602 11.4869 12.5358 11.8916 12.9994 11.8916C13.4631 11.8916 13.8387 11.4869 13.8387 10.9878V2.07028C13.8387 1.57148 13.4631 1.16675 12.9994 1.16675H1.92224C1.45858 1.16675 1.08301 1.57148 1.08301 2.07028V25.9296C1.08301 26.4287 1.45858 26.8334 1.92224 26.8334H12.9994C13.4631 26.8334 13.8387 26.4287 13.8387 25.9296V17.0129C13.8387 16.5138 13.4631 16.1091 12.9994 16.1091" fill="#DADADA"/>
</svg>
