<svg width="12" height="17" viewBox="0 0 12 17" fill="none" xmlns="http://www.w3.org/2000/svg">
<path d="M3.27614 15.0854C3.27614 15.2945 3.33805 15.4984 3.45627 15.6728L4.04059 16.5258C4.21957 16.7873 4.62593 17 4.94877 17H7.05116C7.37291 17 7.77934 16.7874 7.95832 16.5258L8.54059 15.6731C8.64075 15.5257 8.72291 15.2623 8.72291 15.0854L8.72727 13.7837L3.27273 13.7837L3.27614 15.0854ZM6 0C2.52341 0.0106358 0 2.75508 0 5.81432C0 7.28799 0.560455 8.63149 1.485 9.65954C2.04852 10.2851 2.92841 11.5931 3.26523 12.6962C3.26629 12.7045 3.26843 12.7134 3.26949 12.7222L8.73085 12.7222C8.73192 12.7134 8.73405 12.705 8.73511 12.6962C9.07176 11.5931 9.95182 10.2851 10.5153 9.65954C11.4409 8.66005 12 7.31854 12 5.81432C12 2.61661 9.31364 0.000129502 6 0ZM9.28636 8.63681C8.7525 9.22953 8.09182 10.1742 7.6142 11.1568H4.38886C3.91125 10.1742 3.25057 9.22953 2.71705 8.63714C2.01955 7.86311 1.63636 6.8437 1.63636 5.81432C1.63636 3.76221 3.27614 1.60218 5.96932 1.59387C8.40682 1.59387 10.3636 3.49988 10.3636 5.81432C10.3636 6.8437 9.98182 7.86311 9.28636 8.63681ZM5.45455 2.65646C3.95114 2.65646 2.72727 3.84854 2.72727 5.31292C2.72727 5.60659 2.97123 5.84421 3.27273 5.84421C3.57423 5.84421 3.81818 5.60513 3.81818 5.31292C3.81818 4.43396 4.55216 3.71904 5.45455 3.71904C5.75605 3.71904 6 3.48169 6 3.18808C6 2.89448 5.75455 2.65646 5.45455 2.65646Z" fill="#ECECEC"/>
</svg>
